<svg width="24" height="24" viewBox="0 0 24 24" fill="none" xmlns="http://www.w3.org/2000/svg">
<g clip-path="url(#clip0_0_97)">
<path d="M17.5034 0H6.49657C2.9143 0 0 2.9143 0 6.49657V17.5036C0 21.0857 2.9143 24 6.49657 24H17.5036C21.0857 24 24 21.0857 24 17.5036V6.49657C24 2.9143 21.0857 0 17.5034 0ZM22.593 17.5036C22.593 20.3098 20.3098 22.593 17.5034 22.593H6.49657C3.69012 22.593 1.40698 20.3098 1.40698 17.5036V6.49657C1.40698 3.69012 3.69012 1.40698 6.49657 1.40698H17.5036C20.3098 1.40698 22.593 3.69012 22.593 6.49657V17.5036Z" fill="white"/>
<path d="M11.9998 5.43767C8.38128 5.43767 5.4375 8.38145 5.4375 12C5.4375 15.6185 8.38128 18.5623 11.9998 18.5623C15.6183 18.5623 18.5621 15.6185 18.5621 12C18.5621 8.38145 15.6183 5.43767 11.9998 5.43767ZM11.9998 17.1553C9.15728 17.1553 6.84448 14.8427 6.84448 12C6.84448 9.15745 9.15728 6.84465 11.9998 6.84465C14.8425 6.84465 17.1551 9.15745 17.1551 12C17.1551 14.8427 14.8425 17.1553 11.9998 17.1553Z" fill="white"/>
<path d="M18.7194 3.10711C17.65 3.10711 16.7803 3.97704 16.7803 5.04619C16.7803 6.11553 17.65 6.98546 18.7194 6.98546C19.7887 6.98546 20.6586 6.11553 20.6586 5.04619C20.6586 3.97686 19.7887 3.10711 18.7194 3.10711ZM18.7194 5.5783C18.426 5.5783 18.1873 5.33953 18.1873 5.04619C18.1873 4.75268 18.426 4.51409 18.7194 4.51409C19.0129 4.51409 19.2516 4.75268 19.2516 5.04619C19.2516 5.33953 19.0129 5.5783 18.7194 5.5783Z" fill="white"/>
</g>
<defs>
<clipPath id="clip0_0_97">
<rect width="24" height="24" fill="white"/>
</clipPath>
</defs>
</svg>
