<svg width="24" height="30" viewBox="0 0 24 30" fill="none" xmlns="http://www.w3.org/2000/svg">
<path d="M11.6872 0C5.24286 0 0 4.62605 0 10.3122V10.3514C0 12.3896 0.619527 14.3954 1.79158 16.1518L10.7431 29.5662C10.9219 29.8341 11.2474 29.9989 11.5997 30H11.6031C11.9541 30 12.2794 29.8373 12.4597 29.5714L21.5371 16.1805C22.7391 14.4075 23.3744 12.3783 23.3744 10.3122C23.3744 4.62605 18.1315 0 11.6872 0ZM11.6032 14.935C8.82854 14.935 6.57926 12.9504 6.57926 10.5021C6.57926 8.05391 8.82854 6.06924 11.6032 6.06924C14.3779 6.06924 16.6272 8.05391 16.6272 10.5021C16.6272 12.9503 14.3779 14.935 11.6032 14.935Z" fill="black"/>
</svg>
